<svg width="27" height="24" viewBox="0 0 27 24" fill="none" xmlns="http://www.w3.org/2000/svg">
<g clip-path="url(#clip0_7_6)">
<path d="M27 11.25C27 10.1423 26.393 9.18563 25.5 8.66625V1.50047C25.5 1.09031 25.1728 0 24 0C23.6663 0 23.3348 0.111563 23.0634 0.329062L19.0777 3.51797C17.0756 5.11828 14.5622 6 12 6H3C1.34297 6 0 7.34297 0 9V13.5C0 15.157 1.34297 16.5 3 16.5H4.57969C4.51453 16.9912 4.4775 17.4909 4.4775 18C4.4775 19.8642 4.91156 21.6258 5.67563 23.2003C5.91891 23.7014 6.45 24 7.00687 24H10.4887C11.7098 24 12.443 22.6013 11.7028 21.63C10.9341 20.6213 10.477 19.3631 10.477 18C10.477 17.4792 10.553 16.9786 10.6837 16.5H12C14.5622 16.5 17.0756 17.3817 19.0772 18.982L23.063 22.1709C23.3288 22.3837 23.6591 22.4997 23.9995 22.5C25.1677 22.5 25.4995 21.4322 25.4995 21V13.8342C26.393 13.3144 27 12.3577 27 11.25ZM22.5 17.8791L20.9508 16.6397C18.4195 14.6147 15.24 13.5 12 13.5V9C15.24 9 18.4195 7.88531 20.9508 5.86031L22.5 4.62094V17.8791Z" fill="white"/>
</g>
<defs>
<clipPath id="clip0_7_6">
<rect width="27" height="24" fill="white"/>
</clipPath>
</defs>
</svg>
